<?xml version="1.0" encoding="iso-8859-1"?>
<!-- Uploaded to: SVG Repo, www.svgrepo.com, Generator: SVG Repo Mixer Tools -->
<svg version="1.1" id="Layer_1" xmlns="http://www.w3.org/2000/svg" xmlns:xlink="http://www.w3.org/1999/xlink" 
	 viewBox="0 0 512 512" xml:space="preserve">
<circle cx="174.84" cy="75.096" r="75.096"/>
<path d="M171.296,324.736L98.736,167.44c0,0-76.112,1.016-76.112,71.032v86.264H171.296z"/>
<path d="M178.392,324.736l72.544-157.296c0,0,76.112,1.016,76.112,71.032v86.264H178.392z"/>
<polygon style="fill:#E21B1B;" points="174.84,167.44 122.584,167.44 174.84,283.128 227.104,167.44 "/>
<polygon style="fill:#D8D6D6;" points="157.568,512 250.568,487.664 489.328,248.904 420.672,180.24 181.904,419 "/>
<polyline style="fill:#6B6B6B;" points="170.912,461 157.568,512 208.568,498.656 "/>
<rect x="411.649" y="204.155" transform="matrix(0.7071 -0.7071 0.7071 0.7071 -56.6027 368.7615)" width="10.368" height="97.103"/>
<rect x="172" y="297.838" transform="matrix(0.7071 -0.7071 0.7071 0.7071 -150.2834 329.9629)" width="302.317" height="97.103"/>
<rect x="402.2" y="187.901" transform="matrix(0.7071 -0.7071 0.7071 0.7071 -40.3288 375.5429)" style="fill:#E21B1B;" width="61.911" height="97.103"/>
<g style="opacity:0.25;">
	<polygon style="fill:#FFFFFF;" points="157.568,512 456.288,215.856 420.672,180.248 181.944,418.96 	"/>
</g>
<g>
	<polygon style="fill:#666666;" points="240.192,477.208 238.36,475.368 267.968,445.768 267.968,432.816 329.4,371.384 
		345.808,371.384 391.048,326.136 411.952,326.136 409.488,328.728 392.12,328.728 346.88,373.976 330.472,373.976 270.56,433.888 
		270.56,446.84 	"/>
	<polygon style="fill:#666666;" points="193.704,430.776 191.88,428.944 301.864,319 301.864,310.624 360.312,252.184 
		360.312,240.608 362.904,238.088 362.904,253.256 304.456,311.696 304.456,320.072 	"/>
</g>
</svg>